/* XPM */
static char * head_xpm[] = {
"8 8 3 1",
" 	c #000000000000",
".	c #FFFF00000000",
"X	c #0000FFFF0000",
"  .  .  ",
"   ..   ",
"  X..X  ",
" XXXXXX ",
"XXXXXXXX",
"X  XX  X",
"X  XX  X",
"XXXXXXXX"};
