/* XPM */
static char * redapple_xpm[] = {
"8 8 3 1",
" 	c #000000000000",
".	c #0000FFFF0000",
"X	c #FFFF00000000",
"  .  .  ",
" XX..XX ",
"XXXX.XXX",
"XXXXXXXX",
"XXXXXXXX",
"XXXXXXX ",
" XXXXX  ",
"  XX X  "};
