/* XPM */
static char * wall_xpm[] = {
"8 8 3 1",
" 	c #00000000FFFF",
".	c #FFFFFFFFFFFF",
"X	c #000000000000",
"  .X  .X",
"  X.  X.",
".X  .X  ",
"X.  X.  ",
"  .X  .X",
"  X.  X.",
".X  .X  ",
"X.  X.  "};
